<?xml version="1.0" standalone="no"?>
<!DOCTYPE svg PUBLIC "-//W3C//DTD SVG 20010904//EN"
 "http://www.w3.org/TR/2001/REC-SVG-20010904/DTD/svg10.dtd">
<svg version="1.0" xmlns="http://www.w3.org/2000/svg"
 width="700.000000pt" height="700.000000pt" viewBox="0 0 700.000000 700.000000"
 preserveAspectRatio="xMidYMid meet">
<metadata>
Created by potrace 1.14, written by Peter Selinger 2001-2017
</metadata>
<g transform="translate(0.000000,700.000000) scale(0.100000,-0.100000)"
fill="#000000" stroke="none">
<path d="M3749 6826 c-2 -2 -60 -6 -129 -10 -169 -9 -205 -13 -351 -42 -375
-73 -702 -211 -1016 -430 -50 -35 -97 -70 -105 -77 -7 -7 -33 -28 -58 -47 -83
-64 -285 -270 -372 -378 -252 -316 -429 -681 -512 -1056 -14 -61 -28 -126 -31
-143 -12 -75 -14 -90 -19 -138 -3 -27 -8 -75 -12 -105 -3 -30 -6 -426 -6 -880
0 -720 3 -948 17 -1018 1 -9 6 -44 9 -77 4 -33 16 -100 27 -150 11 -49 22 -99
25 -111 2 -11 17 -67 34 -122 227 -763 812 -1397 1555 -1685 104 -40 297 -101
359 -113 12 -2 55 -11 96 -19 69 -14 113 -21 195 -30 30 -4 182 -14 263 -18
23 -2 42 2 43 8 1 13 1 3891 0 3930 -1 27 -5 31 -28 31 -42 1 -132 11 -189 23
-314 63 -611 306 -744 610 -59 135 -82 248 -83 406 -1 105 4 160 18 220 10 44
19 82 20 85 10 50 82 205 128 277 132 207 398 396 633 449 56 12 189 30 217
29 21 -2 27 3 28 19 3 83 1 557 -3 561 -3 3 -7 3 -9 1z"/>
<path d="M3850 5689 c-212 -23 -383 -170 -445 -383 -17 -57 -17 -197 -1 -266
15 -65 79 -170 137 -228 273 -270 736 -159 855 204 27 84 25 258 -4 332 -52
131 -139 230 -254 287 -74 36 -95 43 -158 51 -19 3 -42 6 -50 7 -8 2 -44 0
-80 -4z"/>
<path d="M4863 5199 c0 -253 3 -461 6 -463 3 -2 38 12 76 30 39 18 111 52 160
75 50 23 137 64 195 92 58 27 134 62 170 79 101 46 258 120 328 153 l64 30
-158 75 c-88 40 -204 95 -259 121 -55 25 -122 57 -150 69 -27 12 -106 49 -175
82 -69 33 -143 67 -165 75 -22 9 -44 19 -50 23 -44 31 -43 49 -42 -441z"/>
</g>
</svg>
